:SAMPLES-PER-SECOND 30
:FULLY-SPECIFIED
:DEGREES
55
root  -3.06631 40.8931 0.640053 -99.6433 -89.503 98.2912
RightUpLeg  5.67267 -1.91173 -1.84722
RightLeg  -0.733397 -18.5706 0.0267184
RightFoot  -2.23127 -0.265861 3.20708
RightToes  -3.13006e-008 1.75238e-005 3.56266e-009
Spine  -6.84236 0.373509 -0.757591
Spine1  11.9117 0.723374 -0.902787
HEad  -16.0768 -7.09604 -2.03664
LeftShoulder1  2.35215 -4.06417 -24.9009
LeftArm  -38.388 26.9701 -57.9017
LeftForeArm  47.7262 -48.7308 -9.26053
LeftHand  -0.53585 -5.07084 6.24856
RightShoulder  1.17877 1.46499 17.1835
RightArm  -66.6002 19.6068 4.49606
RightForeArm  -9.73041 61.792 22.6579
RightHand  -1.12549 7.29966 -10.6127
LeftUpLeg  5.11692 1.16792 1.79103
LeftLeg  -1.48923 12.1683 -0.641696
LeftFoot  -1.46265 0.258817 -2.83087
LeftToes  4.76866e-008 1.46233e-008 1.30548e-009
56
root  -3.04023 40.8935 0.642478 -142.701 -89.3717 141.055
RightUpLeg  5.82234 -1.8357 -1.75519
RightLeg  -0.545995 -18.1542 -0.0803509
RightFoot  -2.22091 -0.26792 3.25264
RightToes  -3.13006e-008 1.75238e-005 3.56266e-009
Spine  -6.88237 0.344768 -1.27954
Spine1  12.5704 0.456772 0.0642003
HEad  -16.5179 -6.9811 -3.01238
LeftShoulder1  2.38617 -4.159 -24.963
LeftArm  -38.6191 26.9882 -58.1857
LeftForeArm  47.3223 -49.1405 -9.44608
LeftHand  -0.51894 -4.97519 6.11064
RightShoulder  1.2712 1.71772 17.8254
RightArm  -64.0638 18.8647 5.79144
RightForeArm  -5.33301 65.1081 26.2586
RightHand  -1.09524 7.55881 -10.133
LeftUpLeg  5.35271 1.28357 1.89584
LeftLeg  -1.28429 12.4519 -0.591392
LeftFoot  -1.61142 0.267733 -3.0163
LeftToes  4.76866e-008 1.46233e-008 1.30548e-009
57
root  -3.02241 40.8894 0.647504 -163.419 -88.8956 161.415
RightUpLeg  6.00717 -1.88101 -1.77572
RightLeg  -0.304558 -17.5566 -0.150551
RightFoot  -2.30763 -0.261593 3.16812
RightToes  -3.13006e-008 1.75238e-005 3.56266e-009
Spine  -7.17962 0.337162 -1.31812
Spine1  13.6288 0.423755 0.15794
HEad  -17.3088 -6.51071 -3.00315
LeftShoulder1  2.34601 -4.06256 -24.8229
LeftArm  -38.1011 26.9028 -58.1265
LeftForeArm  46.7907 -50.1365 -9.87725
LeftHand  -0.49139 -4.71685 5.93782
RightShoulder  1.427 2.16682 18.7309
RightArm  -60.9397 17.5174 7.26063
RightForeArm  -0.305438 68.5639 31.3576
RightHand  -1.18468 7.68746 -10.8284
LeftUpLeg  5.77077 1.37414 1.91709
LeftLeg  -1.23732 12.8993 -0.587375
LeftFoot  -1.70276 0.259517 -2.97404
LeftToes  4.76866e-008 1.46233e-008 1.30548e-009
58
root  -2.99104 40.8841 0.658744 -173.765 -88.4533 171.474
RightUpLeg  6.14443 -1.79603 -1.65397
RightLeg  -0.140619 -17.179 -0.24379
RightFoot  -2.31141 -0.262326 3.19318
RightToes  -3.13006e-008 1.75238e-005 3.56266e-009
Spine  -7.24483 0.31934 -1.04137
Spine1  14.423 0.423773 -0.0114224
HEad  -17.9807 -6.05066 -2.40693
LeftShoulder1  2.30411 -3.92714 -24.8224
LeftArm  -38.1115 26.7453 -58.1271
LeftForeArm  47.0369 -51.5755 -10.4687
LeftHand  -0.518508 -5.02963 6.0811
RightShoulder  1.47595 2.2146 19.4124
RightArm  -58.1629 16.4128 9.969
RightForeArm  7.48362 72.0958 39.154
RightHand  -1.10093 7.38893 -10.3184
LeftUpLeg  5.92331 1.54865 2.06427
LeftLeg  -0.858732 13.1811 -0.540642
LeftFoot  -1.89697 0.24722 -2.8602
LeftToes  4.76866e-008 1.46233e-008 1.30548e-009
59
root  -2.93525 40.8746 0.669314 -175.957 -87.9916 173.486
RightUpLeg  5.90751 -1.78607 -1.67474
RightLeg  0.436037 -16.6939 -0.430805
RightFoot  -2.45263 -0.26337 3.22307
RightToes  -3.13006e-008 1.75238e-005 3.56266e-009
Spine  -7.32394 0.183749 -0.61945
Spine1  15.1784 0.457592 -0.725191
HEad  -18.6811 -4.83629 -1.89278
LeftShoulder1  2.24199 -3.74641 -24.7344
LeftArm  -37.8814 26.6128 -57.9321
LeftForeArm  45.9654 -53.5959 -11.4687
LeftHand  -0.533313 -4.60533 6.4813
RightShoulder  1.6238 2.64369 20.0708
RightArm  -54.7845 14.2047 13.9056
RightForeArm  22.6937 75.9752 54.5686
RightHand  -1.11732 7.20426 -10.598
LeftUpLeg  5.93593 1.59567 2.0685
LeftLeg  -0.521281 13.5912 -0.481506
LeftFoot  -2.12109 0.261634 -3.10344
LeftToes  4.76866e-008 1.46233e-008 1.30548e-009
60
root  -2.90035 40.86 0.670824 -177.021 -87.735 174.424
RightUpLeg  5.47069 -1.79771 -1.67688
RightLeg  1.42083 -16.4974 -0.68092
RightFoot  -2.6691 -0.26245 3.22249
RightToes  -3.13006e-008 1.75238e-005 3.56266e-009
Spine  -7.22605 0.101087 -0.0601125
Spine1  15.4456 0.582484 -1.62366
HEad  -19.0878 -3.44367 -1.18094
LeftShoulder1  2.25692 -3.75377 -24.9157
LeftArm  -37.8796 26.3489 -57.567
LeftForeArm  45.8308 -55.7786 -12.603
LeftHand  -0.513729 -4.34541 6.40768
RightShoulder  1.73612 2.97869 20.4525
RightArm  -49.7604 9.98834 18.684
RightForeArm  50.0729 78.4015 81.9552
RightHand  -0.991031 6.94275 -9.64381
LeftUpLeg  5.85393 1.59214 2.04017
LeftLeg  -0.10369 13.822 -0.316972
LeftFoot  -2.2848 0.268897 -3.22615
LeftToes  4.76866e-008 1.46233e-008 1.30548e-009
61
root  -2.82971 40.8415 0.66648 -179.376 -87.1661 176.868
RightUpLeg  4.10222 -1.55767 -1.52801
RightLeg  3.59931 -16.1658 -1.39468
RightFoot  -2.90432 -0.279768 3.49421
RightToes  -3.13006e-008 1.75238e-005 3.56266e-009
Spine  -6.75566 0.342343 0.493798
Spine1  14.9922 0.977544 -2.35539
HEad  -19.2413 -3.20217 -0.563312
LeftShoulder1  2.31582 -3.8309 -25.4142
LeftArm  -37.1633 26.1445 -56.7994
LeftForeArm  45.669 -58.2616 -14.0629
LeftHand  -0.472916 -3.71272 6.29298
RightShoulder  1.92386 3.43016 21.4881
RightArm  -43.4386 3.85788 22.6996
RightForeArm  81.7674 77.4019 114.374
RightHand  -1.07644 7.39241 -10.0995
LeftUpLeg  5.41365 1.67163 2.12105
LeftLeg  0.552117 14.3268 -0.156323
LeftFoot  -2.51846 0.276455 -3.38825
LeftToes  4.76866e-008 1.46233e-008 1.30548e-009
62
root  -2.7252 40.8031 0.634656 179.118 -86.6065 178.633
RightUpLeg  1.99127 -0.545894 -1.02371
RightLeg  6.8537 -16.474 -2.92388
RightFoot  -3.22571 -0.342084 4.46467
RightToes  -3.13006e-008 1.75238e-005 3.56266e-009
Spine  -6.01769 0.646719 0.498522
Spine1  14.0953 1.27485 -2.4939
HEad  -19.7426 -2.97803 -0.0380235
LeftShoulder1  2.3642 -3.881 -25.8735
LeftArm  -36.4682 25.8269 -56.3089
LeftForeArm  47.0828 -60.6856 -15.5851
LeftHand  -0.497687 -4.48811 6.13732
RightShoulder  2.11731 3.7681 22.9406
RightArm  -36.1571 -3.18979 26.1894
RightForeArm  103.262 73.9471 135.152
RightHand  -0.98322 7.10642 -9.43027
LeftUpLeg  4.58055 1.73444 2.21674
LeftLeg  1.54866 14.8522 0.156899
LeftFoot  -2.91312 0.286331 -3.64685
LeftToes  4.76866e-008 1.46233e-008 1.30548e-009
63
root  -2.59381 40.75 0.594867 -179.673 -86.03 177.74
RightUpLeg  -0.702677 1.09789 -0.659649
RightLeg  11.0357 -17.4352 -4.70404
RightFoot  -3.34016 -0.392532 5.284
RightToes  -3.13006e-008 1.75238e-005 3.56266e-009
Spine  -5.15392 0.955677 -0.278968
Spine1  13.166 1.39897 -1.85811
HEad  -20.2397 -2.53588 0.0317743
LeftShoulder1  2.38569 -3.89615 -26.1076
LeftArm  -35.7692 25.6159 -56.6046
LeftForeArm  49.0916 -63.6517 -17.8365
LeftHand  -0.466803 -4.94849 5.53981
RightShoulder  2.37378 4.1679 24.8677
RightArm  -27.9188 -9.9428 28.4008
RightForeArm  116.667 70.7249 144.942
RightHand  -0.656741 7.01602 -6.49499
LeftUpLeg  3.55148 1.70765 2.12558
LeftLeg  2.6915 15.3814 0.53963
LeftFoot  -3.22069 0.27794 -3.6438
LeftToes  4.76866e-008 1.46233e-008 1.30548e-009
64
root  -2.46888 40.6876 0.560623 -176.488 -85.5506 174.448
RightUpLeg  -2.4987 2.22685 -0.886053
RightLeg  14.3843 -17.837 -5.6419
RightFoot  -3.56598 -0.41333 5.71912
RightToes  -3.13006e-008 1.75238e-005 3.56266e-009
Spine  -4.26319 0.976594 -1.57848
Spine1  13.0087 1.17431 -0.907064
HEad  -21.6895 -1.868 -0.454143
LeftShoulder1  2.36189 -3.82912 -26.0755
LeftArm  -34.7767 25.8334 -57.1748
LeftForeArm  52.351 -67.4368 -21.546
LeftHand  -0.44121 -5.18848 5.14921
RightShoulder  2.62055 4.59869 26.3448
RightArm  -18.2884 -16.3024 30.6322
RightForeArm  125.481 68.794 149.345
RightHand  -0.474293 7.06961 -4.75758
LeftUpLeg  3.07503 1.72079 1.90104
LeftLeg  3.64602 15.8169 0.781514
LeftFoot  -3.54407 0.277631 -3.76042
LeftToes  4.76866e-008 1.46233e-008 1.30548e-009
65
root  -2.37645 40.6594 0.524494 -171.693 -85.8052 169.333
RightUpLeg  -2.45091 1.74113 -1.27865
RightLeg  14.7747 -17.603 -5.61772
RightFoot  -3.9747 -0.383126 5.5237
RightToes  -3.13006e-008 1.75238e-005 3.56266e-009
Spine  -3.69198 0.56137 -3.40299
Spine1  13.4306 0.388289 0.59382
HEad  -23.2708 -0.742891 -1.00544
LeftShoulder1  2.40505 -3.95739 -26.1
LeftArm  -32.9847 26.1449 -57.1511
LeftForeArm  57.0153 -71.185 -26.7194
LeftHand  -0.410818 -5.30592 4.7681
RightShoulder  2.89608 5.13014 27.5409
RightArm  -10.1853 -21.1931 33.3045
RightForeArm  132.63 68.7486 150.252
RightHand  -0.19535 6.99826 -2.17639
LeftUpLeg  3.12428 1.70727 1.6591
LeftLeg  3.84663 15.5453 0.708173
LeftFoot  -3.51921 0.269786 -3.63896
LeftToes  4.76866e-008 1.46233e-008 1.30548e-009
66
root  -2.31762 40.6762 0.497745 -167.356 -86.6367 164.687
RightUpLeg  -0.62964 -0.0127444 -1.46994
RightLeg  11.8523 -17.0738 -4.56557
RightFoot  -4.39684 -0.304792 4.51291
RightToes  -3.13006e-008 1.75238e-005 3.56266e-009
Spine  -3.80693 0.0480315 -5.09056
Spine1  14.6896 -0.572731 2.38153
HEad  -25.0278 -0.134598 -1.046
LeftShoulder1  2.33714 -3.84535 -25.6529
LeftArm  -29.9811 25.7945 -57.032
LeftForeArm  62.5661 -73.9924 -32.2741
LeftHand  -0.403237 -5.30894 4.6883
RightShoulder  3.37404 6.00626 29.5775
RightArm  -6.12061 -24.9622 35.6495
RightForeArm  140.297 69.7324 149.753
RightHand  0.0566624 7.23357 0.156232
LeftUpLeg  3.50748 1.76015 1.69675
LeftLeg  3.28053 14.6334 0.347204
LeftFoot  -3.16893 0.257417 -3.33522
LeftToes  4.76866e-008 1.46233e-008 1.30548e-009
